{"title":"2012 (2009) ENGLISH CAM XviD-MAX","uid":5182405,"size":1400888748,"categoryP":"video","categoryS":"movies","magnet":"?xt=urn:btih:09d7502eee35607ebd1d015046dc5453997a7f4d&amp;dn=2012+%282009%29+ENGLISH+CAM+XviD-MAX&amp;tr=udp%3A%2F%2Ftracker.openbittorrent.com%3A80&amp;tr=udp%3A%2F%2Fopen.demonii.com%3A1337&amp;tr=udp%3A%2F%2Ftracker.coppersurfer.tk%3A6969&amp;tr=udp%3A%2F%2Fexodus.desync.com%3A6969","seeders":1,"leechers":0,"uploader":"extremezone","files":-1,"time":1259311585,"description":"2012 (2009) R5 DVDRip XviD-MAX (English BEST QUALITY) &lt;a href=&quot;\nhttp://torrents.thepiratebay.se/5193947/2012_(2009)_R5_DVDRip_XviD-MAX.5193947.TPB.torrent&quot; rel=&quot;nofollow&quot; target=&quot;_NEW&quot;&gt;\nhttp://torrents.thepiratebay.se/5193947/2012_(2009)_R5_DVDRip_XviD-MAX.5193947.TPB.torrent&lt;/a&gt;\n\n2012 (2009) ENGLISH CAM XviD-MAX\n\nFormat                           : AVI\nFormat/Info                      : Audio Video Interleave\nFormat profile                   : OpenDML\nFile size                        : 1.30 GiB\nDuration                         : 2h 27mn\nOverall bit rate                 : 499 Kbps\nWriting application              : VirtualDubMod 1.5.10.2 (build 2542/release)\nWriting library                  : VirtualDubMod build 2542/release\nOriginal source form             : MAX TORRENTZ\nCopyright                        : SIGISMUNT\n\nVideo\nFormat                           : xvid\nCodec ID                         : xvid\nDuration                         : 2h 27mn\nBit rate                         : 442 Kbps\nWidth                            : 640 pixels\nHeight                           : 352 pixels\nDisplay aspect ratio             : 16:9\nFrame rate                       : 25.000 fps\nResolution                       : 24 bits\nBits/(Pixel*Frame)               : 0.079\nStream size                      : 1.16 GiB (89%)\n\nAudio\nID                               : 1\nFormat                           : MPEG Audio\nFormat version                   : Version 1\nFormat profile                   : Layer 3\nCodec ID                         : 55\nCodec ID/Hint                    : MP3\nDuration                         : 2h 27mn\nBit rate mode                    : Constant\nBit rate                         : 128 Kbps\nChannel(s)                       : 2 channels\nSampling rate                    : 44.1 KHz\nResolution                       : 16 bits\nStream size                      : 135 MiB (10%)\nAlignment                        : Aligned on interleaves\nInterleave, duration             : 26 ms (0.65 video frame)\nInterleave, preload duration     : 26 ms &lt;a href=&quot;\nhttp://www.imdb.com/title/tt1190080/&quot; rel=&quot;nofollow&quot; target=&quot;_NEW&quot;&gt;\nhttp://www.imdb.com/title/tt1190080/&lt;/a&gt;\n\nScreens: &lt;a href=&quot;\nhttp://www.postimg.com/image/8000/7982.jpg&quot; rel=&quot;nofollow&quot; target=&quot;_NEW&quot;&gt;\nhttp://www.postimg.com/image/8000/7982.jpg&lt;/a&gt; &lt;a href=&quot;\nhttp://www.postimg.com/image/8000/7983.jpg&quot; rel=&quot;nofollow&quot; target=&quot;_NEW&quot;&gt;\nhttp://www.postimg.com/image/8000/7983.jpg&lt;/a&gt; &lt;a href=&quot;\nhttp://www.postimg.com/image/8000/7984.jpg&quot; rel=&quot;nofollow&quot; target=&quot;_NEW&quot;&gt;\nhttp://www.postimg.com/image/8000/7984.jpg&lt;/a&gt; &lt;a href=&quot;\nhttp://www.postimg.com/image/8000/7985.jpg&quot; rel=&quot;nofollow&quot; target=&quot;_NEW&quot;&gt;\nhttp://www.postimg.com/image/8000/7985.jpg&lt;/a&gt;\n\nScreenCaps: &lt;a href=&quot;\nhttp://www.postimg.com/image/8000/7986.jpg&quot; rel=&quot;nofollow&quot; target=&quot;_NEW&quot;&gt;\nhttp://www.postimg.com/image/8000/7986.jpg&lt;/a&gt;\n\n2012 (2009) ENGLISH CAM XviD-MAX Torrent Free Download &lt;a href=&quot;\nhttp://thepiratebay.se/user/extremezone/0/7&quot; rel=&quot;nofollow&quot; target=&quot;_NEW&quot;&gt;\nhttp://thepiratebay.se/user/extremezone/0/7&lt;/a&gt;","torrent":{"xt":"urn:btih:09d7502eee35607ebd1d015046dc5453997a7f4d","amp;dn":"2012+%282009%29+ENGLISH+CAM+XviD-MAX","amp;tr":["udp%3A%2F%2Ftracker.openbittorrent.com%3A80","udp%3A%2F%2Fopen.demonii.com%3A1337","udp%3A%2F%2Ftracker.coppersurfer.tk%3A6969","udp%3A%2F%2Fexodus.desync.com%3A6969"],"infoHash":"09d7502eee35607ebd1d015046dc5453997a7f4d","infoHashBuffer":{"type":"Buffer","data":[9,215,80,46,238,53,96,126,189,29,1,80,70,220,84,83,153,122,127,77]},"announce":[],"urlList":[]}}